<svg xmlns="http://www.w3.org/2000/svg" viewBox="0 0 760 560" role="img" aria-label="高压水射流清洗工程插画"><defs><linearGradient id="bg" x1="0" x2="1" y1="0" y2="1"><stop stop-color="#173f47"/><stop offset="1" stop-color="#071d22"/></linearGradient><linearGradient id="metal"><stop stop-color="#d9e2df"/><stop offset=".5" stop-color="#6e9aa0"/><stop offset="1" stop-color="#254951"/></linearGradient></defs><rect width="760" height="560" rx="4" fill="url(#bg)"/><g opacity=".45" stroke="#80b1b4" fill="none"><path d="M30 430h700M40 110h680M90 80v350m80-300v300m92-340v340m205-300v300m96-270v270"/><path d="M0 468h760M25 250h710"/></g><g class="parallax-layer" data-speed=".2" fill="none" stroke="#7ea7a9" stroke-width="4" opacity=".5"><path d="M120 340v-190h104v190M224 192h88v-42h100v190"/><path d="M430 337V108h90v229m0-186h110v186"/><circle cx="170" cy="155" r="17"/><circle cx="465" cy="111" r="16"/></g><g class="parallax-layer" data-speed=".5"><path d="M78 394h247l42 28H47z" fill="#0a2c32"/><rect x="112" y="349" width="178" height="48" rx="8" fill="url(#metal)"/><circle cx="140" cy="373" r="10" fill="#dfe8e4"/><circle cx="265" cy="373" r="10" fill="#20464c"/><path d="M287 362h88" stroke="#d2e0dc" stroke-width="8" stroke-linecap="round"/><path d="M365 362c48-2 76-13 117-36" stroke="#c7e8e7" stroke-width="3"/><path d="M482 326c55-23 83-32 138-32" stroke="#caeef0" stroke-width="2"/><path d="M92 347v-38m31 38v-57m33 57v-30" stroke="#9fc1bf" stroke-width="5"/><circle cx="92" cy="309" r="9" fill="#c89a2b"/></g><g class="parallax-layer" data-speed=".8"><circle cx="540" cy="370" r="43" fill="#d39d35"/><path d="M526 412l-17 68h60l-17-68z" fill="#f0a94b"/><path d="M518 433l-32 50m72-50 31 50M510 480h92" stroke="#d6e0da" stroke-width="10"/><path d="M488 365h-32v115h32m118-115h31v115h-31" fill="none" stroke="#e2ece8" stroke-width="9"/><path d="M472 380h150" stroke="#1c535c" stroke-width="18"/><path d="M466 380h162" stroke="#d6e7e3" stroke-width="3"/></g><path d="M0 500h760" stroke="#c89a2b" stroke-width="3"/><g fill="#fff" opacity=".8" font-family="Arial" font-size="12"><text x="34" y="36">ICHSC / HYDRO-TECHNOLOGY / FIELD CONTROL</text><text x="34" y="522">HIGH-PRESSURE WATER JETTING · CONTROLLED WORK ZONE</text></g></svg>
